<svg id="Government" xmlns="http://www.w3.org/2000/svg" width="57.44" height="49.607" viewBox="0 0 57.44 49.607">
  <path id="Path_5490" data-name="Path 5490" d="M34.659,12a1.306,1.306,0,0,0-.632.2L9.876,27.177A1.306,1.306,0,0,0,9.264,28.3v3.284a1.306,1.306,0,0,0,1.305,1.305h3.916V51.164H10.569q-.061,0-.122,0a1.306,1.306,0,0,0-.8.388L6.388,54.815A1.306,1.306,0,0,0,6,55.733V60.3a1.306,1.306,0,0,0,1.305,1.305H62.135A1.306,1.306,0,0,0,63.44,60.3V55.733a1.306,1.306,0,0,0-.388-.918l-3.264-3.264a1.306,1.306,0,0,0-.918-.388H54.955V32.888h3.916a1.306,1.306,0,0,0,1.305-1.305V28.3a1.306,1.306,0,0,0-.612-1.122L35.414,12.205A1.306,1.306,0,0,0,34.659,12Zm.061,2.835L57.565,29.012v1.265H11.875V29.012ZM17.1,32.888h9.791V51.164H17.1Zm12.4,0H39.942V51.164H29.5Zm13.055,0h9.791V51.164H42.553ZM11.1,53.775H58.341l2.489,2.488V59H8.611V56.263L11.1,53.775Z" transform="translate(-6 -12)" fill="#005fff"/>
</svg>
