<svg xmlns="http://www.w3.org/2000/svg" width="50.288" height="55.482" viewBox="0 0 50.288 55.482">
  <g id="entertainment-icon" transform="translate(2559.116 14812)">
    <path id="Path_27927" data-name="Path 27927" d="M126.977,52.087v7.072h0a.977.977,0,0,0,.977.977h.43V86.213a.977.977,0,0,0,.977.977h43.561a.977.977,0,0,0,.977-.977V60.1h.469a.977.977,0,0,0,.977-.977V51.99a.977.977,0,0,0-.977-.977H134.673l38.209-10.568a.977.977,0,0,0,.654-1.162l-1.885-6.9a.977.977,0,0,0-1.152-.654l-44.753,12.4a.976.976,0,0,0-.566.449.91.91,0,0,0-.088.713Zm10.656.85,3.311,5.274H136.06l-3.311-5.274Zm7.15,0,3.311,5.274H143.21L139.9,52.937Zm7.15,0,3.311,5.274h-4.884l-3.311-5.274Zm7.15,0,3.311,5.274h-4.884l-3.321-5.274Zm7.15,0,3.311,5.274H164.61L161.3,52.937Zm-32.437,5.274h-4.932V52.937h1.621Zm38.18,27.055H130.268V60.1h41.7Zm1.416-27.055h-1.632l-3.311-5.274h4.942ZM138.8,42.477l-1.778,5.967-4.747,1.318,1.777-5.967Zm6.886-1.953-1.778,6.007-4.747,1.318,1.777-6.007Zm6.837-1.953-1.778,5.968L146,45.856l1.778-5.967Zm6.886-1.953-1.729,6.095-4.747,1.318,1.787-5.978Zm6.9-1.953-1.787,5.978-4.688,1.475,1.778-5.978Zm5.167,4.249L166.768,40.2l1.778-5.967,1.563-.44Zm-39.557,5.47-1.787,5.978-1.563.43-1.407-5.04Z" transform="translate(-2684.171 -14843.707)" fill="#005fff"/>
    <path id="Path_27928" data-name="Path 27928" d="M288.79,319.9a8.791,8.791,0,1,0,6.216,2.575A8.789,8.789,0,0,0,288.79,319.9Zm0,15.726a6.935,6.935,0,1,1,4.89-2.028,6.926,6.926,0,0,1-4.89,2.028Z" transform="translate(-2821.82 -15099.73)" fill="#005fff"/>
    <path id="Path_27929" data-name="Path 27929" d="M337.161,355.3a.938.938,0,0,0-1.514.743v7.882h0a.946.946,0,0,0,.938.947.907.907,0,0,0,.576-.2l5.04-3.907h0a.977.977,0,0,0,.361-.743.919.919,0,0,0-.361-.742Zm.351,6.69v-4.014l2.559,2.012Z" transform="translate(-2871.256 -15131.007)" fill="#005fff"/>
  </g>
</svg>
