<svg xmlns="http://www.w3.org/2000/svg" width="40.904" height="52.185" viewBox="0 0 40.904 52.185">
  <g id="finance-icon" transform="translate(2715.754 14923.255)">
    <g id="Group_2247" data-name="Group 2247" transform="translate(-2715.754 -14923.255)">
      <g id="Group_2246" data-name="Group 2246" transform="translate(0 0)">
        <path id="Path_5477" data-name="Path 5477" d="M172.485,83.932a1.645,1.645,0,0,1-.012.24c.029-.352.011-.1-.007-.013s-.039.15-.063.223c-.082.26.121-.253.007-.006a2.46,2.46,0,0,1-.233.389c.2-.277.051-.072,0-.014a2.46,2.46,0,0,1-.219.206c.257-.22.07-.056,0-.012s-.13.078-.2.114-.312.125.011,0c-.072.028-.147.049-.221.069s-.152.035-.228.049c.351-.063.09-.017.006-.013H137.684a1.682,1.682,0,0,1-.242-.012c.352.029.1.011.013-.007a2.445,2.445,0,0,1-.3-.088c.319.113.086.036.011,0a2,2,0,0,1-.2-.114c-.064-.039-.266-.205,0,.012-.058-.047-.113-.1-.167-.152a1.415,1.415,0,0,1-.152-.167c.22.257.056.07.012,0s-.078-.13-.114-.2q-.035-.068-.066-.137.106.26.039.075c-.036-.106-.114-.6-.07-.213a2.14,2.14,0,0,1-.012-.241V39.143a2.364,2.364,0,0,1,.012-.288c-.029.352-.011.1.007.013s.039-.15.063-.223c.082-.26-.121.253-.007.006.032-.069.07-.135.106-.2a2.013,2.013,0,0,1,.125-.189c-.2.277-.051.072,0,.015a2.254,2.254,0,0,1,.161-.157q.148-.124-.07.048.061-.045.124-.085c.088-.058.531-.25.186-.115a2.445,2.445,0,0,1,.449-.118c-.365.066-.013.012.085.012h33.555a1.645,1.645,0,0,1,.24.012c-.352-.029-.1-.011-.013.007s.15.039.223.063q.184.068-.075-.039.07.031.137.066c.092.046.483.335.194.106a2.47,2.47,0,0,1,.319.319c-.22-.257-.056-.07-.012,0s.078.13.114.2.125.312,0-.011a2.433,2.433,0,0,1,.088.3c.019.078.048.345.007-.013a2.271,2.271,0,0,1,.012.24V83.932a1.214,1.214,0,1,0,2.429,0V39.112a3.735,3.735,0,0,0-1.794-3.168,4.813,4.813,0,0,0-2.688-.513H138.674a7.429,7.429,0,0,0-2.025.146,3.7,3.7,0,0,0-2.64,3.521V83.923a3.677,3.677,0,0,0,2.062,3.294,4.137,4.137,0,0,0,1.76.374h33.25a4.4,4.4,0,0,0,1.191-.146,3.712,3.712,0,0,0,2.64-3.519,1.214,1.214,0,1,0-2.429,0Z" transform="translate(-134.009 -35.407)" fill="#005fff"/>
      </g>
    </g>
    <g id="Group_2249" data-name="Group 2249" transform="translate(-2705.212 -14914.745)">
      <g id="Group_2248" data-name="Group 2248" transform="translate(0 0)">
        <path id="Path_5478" data-name="Path 5478" d="M330.808,190.517a7.5,7.5,0,0,1-.054.887c.047-.4-.028.126-.047.221-.036.179-.081.355-.131.531-.043.149-.091.3-.143.441-.025.072-.054.143-.082.212-.1.255.114-.258,0-.008a7,7,0,0,1-.47.869c-.081.129-.167.253-.255.375-.043.058-.212.269.006-.005-.047.06-.1.117-.143.175a7.067,7.067,0,0,1-.685.7c-.068.062-.463.379-.161.147-.12.092-.243.18-.37.264a7.016,7.016,0,0,1-.857.488c-.069.033-.138.065-.213.1.319-.145.075-.032.007-.005-.143.056-.289.106-.436.153a6.984,6.984,0,0,1-.987.232c-.279.046.291-.034.01,0-.08.01-.158.016-.238.023-.16.014-.319.019-.483.022s-.319,0-.486-.011c-.08,0-.16-.011-.24-.018s-.455-.058-.071,0a6.983,6.983,0,0,1-.917-.2c-.149-.042-.3-.091-.441-.143-.072-.026-.143-.054-.213-.082q-.182-.074.079.033l-.139-.063a7,7,0,0,1-.8-.438c-.129-.081-.253-.167-.375-.256-.058-.042-.269-.212.005.006-.079-.063-.155-.128-.232-.193a7.065,7.065,0,0,1-.643-.638c-.062-.068-.379-.464-.147-.163-.106-.14-.213-.286-.3-.432a7.028,7.028,0,0,1-.446-.795c-.033-.069-.065-.138-.1-.212.143.319.032.075.005.006-.066-.168-.122-.338-.175-.51a7,7,0,0,1-.212-.913c-.046-.279.034.291,0,.008-.01-.08-.016-.158-.023-.238-.016-.188-.021-.376-.022-.564,0-.161.006-.319.016-.485.006-.1.072-.627.016-.231a6.983,6.983,0,0,1,.221-.991c.044-.148.095-.293.148-.439.027-.072.055-.143.084-.212-.133.327-.03.077,0,.01a7.006,7.006,0,0,1,.479-.864c.082-.128.17-.251.259-.373.16-.218-.174.218,0,.007.048-.058.1-.116.146-.173a7.078,7.078,0,0,1,.693-.694c.056-.05.115-.1.173-.146.213-.172-.223.167-.007,0,.121-.091.245-.176.372-.26a7.014,7.014,0,0,1,.864-.479c.066-.031.319-.138-.01,0,.071-.03.142-.057.213-.085.144-.055.291-.106.438-.149a6.981,6.981,0,0,1,.99-.222c-.394.061.133-.01.231-.016.162-.012.319-.016.484-.017l-1.214-1.214v7.024a1.226,1.226,0,0,0,1.214,1.214h7.024a1.214,1.214,0,1,0,0-2.429h-7.024l1.214,1.214v-7.024a1.225,1.225,0,0,0-1.214-1.214,8.247,8.247,0,1,0,8.239,8.239,1.214,1.214,0,0,0-2.429,0Z" transform="translate(-316.735 -182.273)" fill="#005fff"/>
      </g>
    </g>
    <g id="Group_2251" data-name="Group 2251" transform="translate(-2694.906 -14917.93)">
      <g id="Group_2250" data-name="Group 2250" transform="translate(0 0)">
        <path id="Path_5479" data-name="Path 5479" d="M502.535,134.13h-6.952l1.214,1.214v-6.952l-1.214,1.214c.225,0,.448.013.673.032h0q.106.016.213.035c.142.024.284.055.425.088a2.545,2.545,0,0,0,.593.116c-.448,0-.175,0-.014.052.106.033.2.071.3.106l.149.059q-.251-.106-.07-.027a6.9,6.9,0,0,1,1.1.63c.06.041.355.267.071.046.083.065.164.133.243.2.159.137.311.284.458.435.129.132.25.271.367.412l.1.123q-.164-.212-.047-.056c.063.085.122.172.181.26.118.176.225.359.326.545.051.094.1.188.144.284.032.066.181.411.04.075a6.916,6.916,0,0,1,.378,1.238c.022.106.041.212.058.319q.03.2-.01-.077.01.083.018.166c.022.223.031.448.032.673a1.214,1.214,0,0,0,2.429,0,8.307,8.307,0,0,0-2.3-5.684,7.847,7.847,0,0,0-2.365-1.69c-.265-.122-.531-.234-.81-.334-.1-.037-.2-.07-.306-.106l-.155-.046-.319-.044q.4.053.157,0a8.1,8.1,0,0,0-2.065-.264,1.226,1.226,0,0,0-1.214,1.214v6.952a1.226,1.226,0,0,0,1.214,1.214h6.952a1.214,1.214,0,1,0,0-2.429Z" transform="translate(-494.366 -127.175)" fill="#005fff"/>
      </g>
    </g>
    <g id="Group_2253" data-name="Group 2253" transform="translate(-2709.232 -14891.954)">
      <g id="Group_2252" data-name="Group 2252" transform="translate(0 0)">
        <path id="Path_5480" data-name="Path 5480" d="M247.825,588.922h4.031a3.848,3.848,0,0,0,2.538-6.772,4.022,4.022,0,0,0-2.42-.927c-.356-.016-.715,0-1.071,0h-.425c-.085,0-.469-.038-.086.014a2.629,2.629,0,0,1-.524-.135c-.256-.091.255.12.012,0-.068-.033-.133-.072-.2-.106a1.521,1.521,0,0,1-.186-.128c.277.2.073.049.016,0-.075-.069-.374-.451-.154-.15a2.629,2.629,0,0,1-.26-.459c.156.342-.019-.118-.043-.221-.018-.079-.041-.345,0,.013-.008-.08-.01-.16-.011-.24a1.656,1.656,0,0,1,.011-.24c-.027.352-.013.1,0,.013a1.574,1.574,0,0,1,.058-.224q.022-.073.049-.146-.114.257-.033.08a2.634,2.634,0,0,1,.228-.39c-.191.279-.055.072,0,.011s.106-.106.157-.161.26-.213-.016,0c.06-.046.123-.087.186-.128a1.474,1.474,0,0,1,.2-.106q.176-.084-.083.028.071-.029.143-.053a2.629,2.629,0,0,1,.452-.106c-.376.063-.01.014.079.014h4.065a1.214,1.214,0,0,0,0-2.429h-4.031a3.848,3.848,0,0,0-2.538,6.773,4.022,4.022,0,0,0,2.42.926c.356.016.715,0,1.071,0h.425c.085,0,.469.038.086-.014a2.625,2.625,0,0,1,.524.135c.256.091-.255-.12-.012,0,.068.033.133.072.2.106a1.521,1.521,0,0,1,.186.128c-.277-.2-.073-.049-.016,0,.075.069.374.451.154.15a2.639,2.639,0,0,1,.26.459c-.156-.342.019.118.043.221.018.079.041.345,0-.013.009.08.01.16.011.24a1.651,1.651,0,0,1-.011.24c.027-.352.013-.1,0-.013a1.569,1.569,0,0,1-.058.224q-.022.073-.049.146.114-.257.033-.08a2.623,2.623,0,0,1-.228.39c.192-.28.055-.072,0-.011s-.106.106-.157.161-.26.213.016,0c-.059.046-.123.087-.186.128a1.463,1.463,0,0,1-.2.106q-.176.084.083-.028-.071.029-.143.053a2.641,2.641,0,0,1-.452.106c.376-.063.01-.014-.079-.014h-4.065a1.214,1.214,0,1,0,0,2.429Z" transform="translate(-246.611 -575.972)" fill="#005fff"/>
      </g>
    </g>
    <g id="Group_2255" data-name="Group 2255" transform="translate(-2705.859 -14894.608)">
      <g id="Group_2254" data-name="Group 2254" transform="translate(0)">
        <path id="Path_5481" data-name="Path 5481" d="M307.383,534.24V531.6a1.214,1.214,0,1,0-2.429,0v2.635a1.214,1.214,0,0,0,2.429,0Z" transform="translate(-304.954 -530.39)" fill="#005fff"/>
      </g>
    </g>
    <g id="Group_2257" data-name="Group 2257" transform="translate(-2705.859 -14881.432)">
      <g id="Group_2256" data-name="Group 2256" transform="translate(0 0)">
        <path id="Path_5482" data-name="Path 5482" d="M307.383,762.076v-2.635a1.214,1.214,0,1,0-2.429,0v2.635a1.214,1.214,0,1,0,2.429,0Z" transform="translate(-304.954 -758.227)" fill="#005fff"/>
      </g>
    </g>
    <g id="Group_2259" data-name="Group 2259" transform="translate(-2696.04 -14893.383)">
      <g id="Group_2258" data-name="Group 2258" transform="translate(0 0)">
        <path id="Path_5483" data-name="Path 5483" d="M475.935,554h12.251a1.214,1.214,0,1,0,0-2.429H475.935a1.214,1.214,0,1,0,0,2.429Z" transform="translate(-474.721 -551.572)" fill="#005fff"/>
      </g>
    </g>
    <g id="Group_2261" data-name="Group 2261" transform="translate(-2696.04 -14880.021)">
      <g id="Group_2260" data-name="Group 2260" transform="translate(0 0)">
        <path id="Path_5484" data-name="Path 5484" d="M488.185,782.614H475.934a1.214,1.214,0,1,0,0,2.429h12.251a1.214,1.214,0,1,0,0-2.429Z" transform="translate(-474.72 -782.614)" fill="#005fff"/>
      </g>
    </g>
    <g id="Group_2263" data-name="Group 2263" transform="translate(-2696.04 -14886.479)">
      <g id="Group_2262" data-name="Group 2262">
        <path id="Path_5485" data-name="Path 5485" d="M488.185,670.931H475.934a1.214,1.214,0,1,0,0,2.429h12.251a1.214,1.214,0,1,0,0-2.429Z" transform="translate(-474.72 -670.931)" fill="#005fff"/>
      </g>
    </g>
  </g>
</svg>
